<svg xmlns="http://www.w3.org/2000/svg" viewBox="0 0 804 284">
  <g>
    <!-- Green Crescent and People -->
    <path d="M217.1 60c-85.9 0-155.5 69.6-155.5 155.5 0 4.1 0.2 8.2 0.5 12.2 21.5-79.7 94.3-138.3 181.1-138.3 8.8 0 17.5 0.6 26 1.7C247.5 69 234 60 217.1 60z" fill="#34a853"/>
    <circle cx="217.1" cy="159.5" r="32.5" fill="#34a853"/>
    <circle cx="177.1" cy="159.5" r="22.5" fill="#34a853"/>
    <circle cx="257.1" cy="159.5" r="22.5" fill="#34a853"/>
    <circle cx="217.1" cy="119.5" r="22.5" fill="#34a853"/>
    <circle cx="217.1" cy="199.5" r="22.5" fill="#34a853"/>

    <!-- Text: Muslim Connect -->
    <path d="M414.5 129.5h16v80h-16v-36h-37v36h-16v-80h16v31h37v-31z" fill="#212121"/>
    <path d="M489.5 129.5v13h-23v18h21v12h-21v24h23v13h-39v-80h39z" fill="#212121"/>
    <path d="M538.5 129.5c10.5 0 18.5 3 24 9s8 14.5 8 25.5c0 11-2.5 19.5-8 25.5s-13.5 9-24 9h-24v-69h24zm-1 56c6 0 10.5-1.5 13.5-4.5s4.5-8 4.5-14.5v-6c0-6.5-1.5-11.5-4.5-14.5s-7.5-4.5-13.5-4.5h-7v44h7z" fill="#212121"/>
    <path d="M592.5 129.5v69h-16v-69h16z" fill="#212121"/>
    <path d="M618.5 129.5l17 52 17-52h21v69h-16v-53l-18 53h-8l-18-53v53h-16v-69h21z" fill="#212121"/>

    <path d="M414.5 218.5h16v80h-16v-36h-37v36h-16v-80h16v31h37v-31z" fill="#212121"/>
    <path d="M465.5 218.5c13 0 22 3 29 9s10.5 14.5 10.5 25.5c0 11-3.5 19.5-10.5 25.5s-16 9-29 9h-24v-69h24zm-1 56c7.5 0 13-1.5 16.5-4.5s5.5-8 5.5-14.5v-6c0-6.5-1.8-11.5-5.5-14.5s-9-4.5-16.5-4.5h-7v44h7z" fill="#212121"/>
    <path d="M548.5 217.5c7 0 13 1.5 18 4.5s9 7 11.5 12 4 10.5 4 16.5v10h-47v3c0 6 1.5 10.5 4.5 13.5s7.5 4.5 13.5 4.5c4.5 0 8.5-1 11.5-3s5-5 6-9h11c-1.5 7.5-5 13.5-10.5 18s-12.5 6.5-21.5 6.5c-6.5 0-12-1.5-17-4.5s-9-7-11.5-12-4-10.5-4-16.5v-6c0-6.5 1.5-12 4.5-17s7-9 12-12 10.5-4 16.5-4zm0 12c-5.5 0-10 1.5-13.5 4.5s-5.5 7.5-6 13.5h37c0-6-1.5-10.5-4.5-13.5s-7.5-4.5-13-4.5z" fill="#212121"/>
    <path d="M618.5 218.5v69h-16v-69h16z" fill="#212121"/>
    <path d="M655.5 217.5c6.5 0 12 1.5 17 4.5s9 7 11.5 12 4 10.5 4 16.5v6c0 6-1.5 11.5-4 16.5s-6.5 9-11.5 12-10.5 4.5-17 4.5c-9 0-16.5-2.5-22-7.5s-9-11.5-10.5-19.5h11c1 5.5 3 9.5 6 12s7 4 12 4c6 0 10.5-2 14-6s5-9.5 5-16.5v-3c0-7-1.5-12.5-5-16.5s-8-6-14-6c-9 0-15 4.5-18 13.5h-11l4-36h43v11h-34l-2 16c4-6 10-9 17-9z" fill="#212121"/>
    <path d="M725.5 217.5c6.5 0 12 1.5 17 4.5s9 7 11.5 12 4 10.5 4 16.5v6c0 6-1.5 11.5-4 16.5s-6.5 9-11.5 12-10.5 4.5-17 4.5-12-1.5-17-4.5-9-7-11.5-12-4-10.5-4-16.5v-6c0-6 1.5-11.5 4-16.5s6.5-9 11.5-12 10.5-4.5 17-4.5zm0 11c-6 0-10.5 2-14 6s-5 9.5-5 16.5v3c0 7 1.5 12.5 5 16.5s8 6 14 6 10.5-2 14-6 5-9.5 5-16.5v-3c0-7-1.5-12.5-5-16.5s-8-6-14-6z" fill="#212121"/>
    <path d="M784.5 218.5v49c0 6.5 1.5 11.5 4.5 14.5s7.5 4.5 13.5 4.5c6 0 10.5-1.5 13.5-4.5s4.5-8 4.5-14.5v-49h16v49c0 10-2.5 17.5-8 23s-13 8-26 8-20.5-2.5-26-8-8-13-8-23v-49h16z" fill="#212121"/>
  </g>
</svg>
